Coordinates
version=1
nRows=17
nColumns=40
inDegrees=yes

Units are S.I. units (second, meters, Newtons, ...)
If the header above contains a line with 'inDegrees', this indicates whether rotational values are in degrees (yes) or radians (no).

endheader
time	pelvis_tilt	pelvis_list	pelvis_rotation	pelvis_tx	pelvis_ty	pelvis_tz	hip_flexion_r	hip_adduction_r	hip_rotation_r	knee_angle_r	knee_angle_r_beta	ankle_angle_r	subtalar_angle_r	mtp_angle_r	hip_flexion_l	hip_adduction_l	hip_rotation_l	knee_angle_l	knee_angle_l_beta	ankle_angle_l	subtalar_angle_l	mtp_angle_l	lumbar_extension	lumbar_bending	lumbar_rotation	arm_flex_r	arm_add_r	arm_rot_r	elbow_flex_r	pro_sup_r	wrist_flex_r	wrist_dev_r	arm_flex_l	arm_add_l	arm_rot_l	elbow_flex_l	pro_sup_l	wrist_flex_l	wrist_dev_l
     13.00000000	    -16.73889029	      0.85891225	    175.50460154	      0.18237738	      0.87248874	     -0.90143797	     -3.81325135	    -29.78732810	    -30.57761091	     13.92828513	      0.24309443	    -12.10225990	      0.00000000	      0.00000000	    -15.53099128	    -26.76967768	    -37.08910268	      7.49340118	      0.13078452	     -6.30651474	      0.00000000	      0.00000000	    -22.85913795	      1.52912275	      1.67849514	     13.58597645	     -6.16741756	     35.60676912	      4.35541399	     16.05251370	      0.00000000	      0.00000000	     18.64106578	     -4.34059858	     75.62020836	      8.42672013	     83.10563933	      0.00000000	      0.00000000
     13.00500000	    -16.81217721	      0.84818462	    175.47400343	      0.18288222	      0.87257778	     -0.90143176	     -3.87385630	    -29.78372400	    -30.51893174	     13.85151846	      0.24175460	    -12.16466412	      0.00000000	      0.00000000	    -15.59050503	    -26.73003743	    -37.09751196	      7.47389944	      0.13044415	     -6.32783350	      0.00000000	      0.00000000	    -22.93567209	      1.52512635	      1.74559666	     13.56254682	     -6.24444447	     35.77961770	      4.40594576	     16.23151046	      0.00000000	      0.00000000	     18.66623135	     -4.29992900	     75.25296615	      8.44489024	     82.96043442	      0.00000000	      0.00000000
     13.01000000	    -16.87116071	      0.87377611	    175.63840791	      0.18309336	      0.87255043	     -0.90110427	     -4.08290170	    -29.72918181	    -30.79529662	     13.75053987	      0.23999219	    -12.19891291	      0.00000000	      0.00000000	    -15.49655543	    -26.83266272	    -37.04551876	      7.62108556	      0.13301304	     -6.21973164	      0.00000000	      0.00000000	    -22.97186300	      1.64179989	      1.69028654	     13.45447173	     -6.37937796	     36.20203325	      4.45156012	     16.46786694	      0.00000000	      0.00000000	     18.67789702	     -4.21802507	     75.01457118	      8.37399077	     83.20221091	      0.00000000	      0.00000000
     13.01500000	    -17.06555375	      0.63313705	    175.21422628	      0.18348859	      0.87292648	     -0.90180936	     -3.96326397	    -30.03354265	    -30.25748936	     13.79493642	      0.24076706	    -12.18757984	      0.00000000	      0.00000000	    -16.05688639	    -26.29581680	    -37.22429837	      7.08943812	      0.12373404	     -6.78348353	      0.00000000	      0.00000000	    -23.16337909	      1.23911904	      1.96925327	     13.64386109	     -6.13666381	     35.66780116	      4.43971363	     14.59977254	      0.00000000	      0.00000000	     18.63827192	     -4.25905640	     74.34607574	      8.45159186	     82.81999132	      0.00000000	      0.00000000
     13.02000000	    -17.15141113	      0.67507784	    175.50478825	      0.18379033	      0.87284560	     -0.90136261	     -4.25043891	    -29.97476560	    -30.65411467	     13.75497561	      0.24006961	    -12.19914309	      0.00000000	      0.00000000	    -15.85082525	    -26.49483834	    -37.08659748	      7.42303127	      0.12955634	     -6.39012997	      0.00000000	      0.00000000	    -23.23849408	      1.39940841	      1.89490046	     13.45971897	     -6.36431045	     36.16546673	      4.46363116	     16.13688638	      0.00000000	      0.00000000	     18.72062206	     -4.20212487	     74.62301379	      8.42452623	     83.19664145	      0.00000000	      0.00000000
     13.02500000	    -17.15024715	      0.65794872	    175.50219789	      0.18402252	      0.87279039	     -0.90141458	     -4.20279733	    -30.00265676	    -30.59836152	     13.80332478	      0.24091347	    -12.17746063	      0.00000000	      0.00000000	    -15.81051137	    -26.49312007	    -37.08945764	      7.45134269	      0.13005046	     -6.46514625	      0.00000000	      0.00000000	    -23.21749577	      1.40927339	      1.94006057	     13.48450213	     -6.33893335	     35.98691044	      4.38972181	     16.13871823	      0.00000000	      0.00000000	     18.70705037	     -4.16993324	     74.49830839	      8.40578814	     83.11873218	      0.00000000	      0.00000000
     13.03000000	    -17.26425639	      0.62089024	    175.51033008	      0.18428065	      0.87286595	     -0.90145813	     -4.28447055	    -30.06351216	    -30.60039106	     13.86870482	      0.24205456	    -12.14490689	      0.00000000	      0.00000000	    -15.91403817	    -26.43870843	    -37.11578005	      7.42197103	      0.12953783	     -6.46817412	      0.00000000	      0.00000000	    -23.31702325	      1.37870860	      1.99134507	     13.41764229	     -6.44857430	     36.47323393	      4.34953183	     17.06539246	      0.00000000	      0.00000000	     18.75883363	     -4.10942511	     74.39997106	      8.35740239	     83.15150377	      0.00000000	      0.00000000
     13.03500000	    -17.37939461	      0.50771131	    175.49883962	      0.18441438	      0.87297320	     -0.90161285	     -4.34505424	    -30.21960816	    -30.63780323	     13.97129026	      0.24384502	    -12.10346427	      0.00000000	      0.00000000	    -16.02812975	    -26.29808313	    -37.09821201	      7.37011954	      0.12863285	     -6.59947638	      0.00000000	      0.00000000	    -23.40842821	      1.25938294	      2.07391372	     13.46618020	     -6.25509617	     35.64279180	      4.32943969	     15.97296446	      0.00000000	      0.00000000	     18.79637411	     -4.11101634	     74.46893364	      8.37787669	     83.14483894	      0.00000000	      0.00000000
     13.04000000	    -17.32630225	      0.62247183	    175.60030196	      0.18451653	      0.87279084	     -0.90153998	     -4.30590820	    -30.09248237	    -30.68136114	     14.04244137	      0.24508684	    -12.05017040	      0.00000000	      0.00000000	    -15.86123077	    -26.52411202	    -37.08254233	      7.55138691	      0.13179656	     -6.45168173	      0.00000000	      0.00000000	    -23.32792276	      1.45131840	      2.03601636	     13.41830843	     -6.37818333	     36.53695948	      4.37828615	     15.92486307	      0.00000000	      0.00000000	     18.76679317	     -4.05723680	     74.22638723	      8.34920742	     83.24869482	      0.00000000	      0.00000000
     13.04500000	    -17.34335780	      0.63981526	    175.59930069	      0.18450218	      0.87267241	     -0.90159757	     -4.27593824	    -30.10330458	    -30.66831558	     14.14204228	      0.24682520	    -11.96495824	      0.00000000	      0.00000000	    -15.88287805	    -26.56306495	    -37.06455597	      7.56398057	      0.13201637	     -6.33228051	      0.00000000	      0.00000000	    -23.30765240	      1.51224511	      1.98525226	     13.40410715	     -6.44103412	     37.10442488	      4.32031793	     16.28821126	      0.00000000	      0.00000000	     18.70688290	     -4.07946967	     73.99985107	      8.36329705	     83.14713600	      0.00000000	      0.00000000
     13.05000000	    -17.43488508	      0.56059968	    175.66754877	      0.18456206	      0.87279015	     -0.90172820	     -4.36912349	    -30.21463347	    -30.80894374	     14.24928567	      0.24869695	    -11.93747436	      0.00000000	      0.00000000	    -15.88425565	    -26.52488187	    -37.03461838	      7.64479328	      0.13342681	     -6.47775014	      0.00000000	      0.00000000	    -23.36945562	      1.43474191	      2.01117290	     13.42931754	     -6.31013780	     36.33651211	      4.32052385	     15.91098383	      0.00000000	      0.00000000	     18.75661063	     -4.07014551	     74.08136545	      8.34504389	     83.26776307	      0.00000000	      0.00000000
     13.05500000	    -17.21446469	      0.77490882	    175.84686549	      0.18460227	      0.87237137	     -0.90152421	     -4.19524442	    -29.97427626	    -30.88795072	     14.34698984	      0.25040221	    -11.87273273	      0.00000000	      0.00000000	    -15.40642008	    -26.98762618	    -36.99370184	      8.15929558	      0.14240657	     -6.16312597	      0.00000000	      0.00000000	    -23.11795109	      1.77126394	      1.96512482	     13.31749364	     -6.41319170	     36.62778951	      4.24215169	     16.83568086	      0.00000000	      0.00000000	     18.71114255	     -3.99615544	     73.99856240	      8.30220253	     83.44785619	      0.00000000	      0.00000000
     13.06000000	    -17.32342360	      0.73939164	    175.72792486	      0.18489457	      0.87251933	     -0.90189533	     -4.16213998	    -30.04281619	    -30.66772764	     14.45358687	      0.25226268	    -11.83215782	      0.00000000	      0.00000000	    -15.64930490	    -26.85702383	    -36.96848786	      7.90083657	      0.13789561	     -6.31672319	      0.00000000	      0.00000000	    -23.22719137	      1.68568779	      2.03889359	     13.41191792	     -6.32797694	     36.54698231	      4.38341516	     15.24743897	      0.00000000	      0.00000000	     18.72445155	     -4.03311545	     73.91902776	      8.31588277	     83.18599105	      0.00000000	      0.00000000
     13.06500000	    -17.37483556	      0.74659946	    175.71770645	      0.18502170	      0.87257322	     -0.90208042	     -4.16665663	    -30.05180339	    -30.66108432	     14.52841981	      0.25356876	    -11.78325094	      0.00000000	      0.00000000	    -15.69460496	    -26.90193259	    -36.96716853	      7.94520812	      0.13867004	     -6.35404540	      0.00000000	      0.00000000	    -23.26022279	      1.69167192	      2.09308163	     13.37265073	     -6.39190810	     36.42284278	      4.22586203	     17.03033837	      0.00000000	      0.00000000	     18.74827723	     -4.02315830	     73.87348743	      8.29087409	     83.37830835	      0.00000000	      0.00000000
     13.07000000	    -17.35593170	      0.86630491	    175.80628033	      0.18512639	      0.87246201	     -0.90200876	     -4.17691792	    -29.91526913	    -30.70004562	     14.57024412	      0.25429873	    -11.73919317	      0.00000000	      0.00000000	    -15.55389910	    -27.13325120	    -36.94666864	      8.13386369	      0.14196270	     -6.42161563	      0.00000000	      0.00000000	    -23.22991475	      1.86338483	      2.07362938	     13.28905268	     -6.52590837	     36.58306428	      4.11072317	     18.67975995	      0.00000000	      0.00000000	     18.71948243	     -4.06385200	     73.85384290	      8.37705606	     83.19403460	      0.00000000	      0.00000000
     13.07500000	    -17.08739985	      1.23230043	    176.28857534	      0.18520690	      0.87189984	     -0.90134314	     -4.19868851	    -29.46269588	    -31.18553882	     14.55989699	      0.25411814	    -11.76028585	      0.00000000	      0.00000000	    -14.78587968	    -27.89074246	    -36.76281168	      8.83614264	      0.15421978	     -5.77074820	      0.00000000	      0.00000000	    -22.92172541	      2.47023688	      1.74495557	     13.36511446	     -6.43541020	     36.05215240	      4.09110866	     18.21057005	      0.00000000	      0.00000000	     18.64980978	     -3.92985416	     73.42797100	      8.24202377	     83.23360679	      0.00000000	      0.00000000
     13.08000000	    -17.48801652	      0.87942328	    175.81448083	      0.18542163	      0.87266263	     -0.90229571	     -4.30987967	    -29.88899165	    -30.67266467	     14.57979806	      0.25446548	    -11.73133516	      0.00000000	      0.00000000	    -15.66946438	    -27.14828872	    -36.86854319	      8.14621359	      0.14217825	     -6.36220605	      0.00000000	      0.00000000	    -23.32316548	      1.89298853	      2.04467814	     13.37217694	     -6.29853589	     35.91363764	      4.36267878	     16.29669211	      0.00000000	      0.00000000	     18.68724641	     -4.01650321	     73.22568776	      8.27743395	     83.29555451	      0.00000000	      0.00000000
